HIERARCHY
ROOT SpineBase
{
  OFFSET 0.000000 0.000000 0.000000
  CHANNELS 6 Xposition Yposition Zposition Zrotation Xrotation Yrotation
  JOINT SpineMid
  {
    OFFSET 0.000000 26.427109 0.000000
    CHANNELS 3 Zrotation Xrotation Yrotation
    JOINT SpineShoulder
    {
      OFFSET -0.131164 19.659156 -0.554332
      CHANNELS 3 Zrotation Xrotation Yrotation
      JOINT Neck
      {
        OFFSET -0.082519 6.508825 -0.473948
        CHANNELS 3 Zrotation Xrotation Yrotation
        JOINT Head
        {
          OFFSET -2.606145 11.697522 0.762259
          CHANNELS 3 Zrotation Xrotation Yrotation
          End Site
          {
            OFFSET 0 0 0
          }
        }
      }
      JOINT ShoulderLeft
      {
        OFFSET -8.095694 -4.262749 12.558456
        CHANNELS 3 Zrotation Xrotation Yrotation
        JOINT ElbowLeft
        {
          OFFSET 0.821611 -23.160822 -8.451437
          CHANNELS 3 Zrotation Xrotation Yrotation
          JOINT WristLeft
          {
            OFFSET -0.095448 -21.637212 14.002740
            CHANNELS 3 Zrotation Xrotation Yrotation
            JOINT HandLeft
            {
              OFFSET -1.650731 -9.823392 1.690799
              CHANNELS 3 Zrotation Xrotation Yrotation
              JOINT HandTipLeft
              {
                OFFSET -0.364909 -2.743785 0.097345
                CHANNELS 3 Zrotation Xrotation Yrotation
                End Site
                {
                  OFFSET 0 0 0
                }
              }
              JOINT ThumbLeft
              {
                OFFSET 0.098930 0.424116 -2.800869
                CHANNELS 3 Zrotation Xrotation Yrotation
                End Site
                {
                  OFFSET 0 0 0
                }
              }
            }
          }
        }
      }
      JOINT ShoulderRight
      {
        OFFSET 4.746869 -3.806162 -13.077584
        CHANNELS 3 Zrotation Xrotation Yrotation
        JOINT ElbowRight
        {
          OFFSET 4.289074 -19.825003 -4.271998
          CHANNELS 3 Zrotation Xrotation Yrotation
          JOINT WristRight
          {
            OFFSET -3.622288 -23.648556 -2.086748
            CHANNELS 3 Zrotation Xrotation Yrotation
            JOINT HandRight
            {
              OFFSET -0.886189 -7.503657 0.591091
              CHANNELS 3 Zrotation Xrotation Yrotation
              JOINT HandTipRight
              {
                OFFSET -1.171279 -7.216775 0.673894
                CHANNELS 3 Zrotation Xrotation Yrotation
                End Site
                {
                  OFFSET 0 0 0
                }
              }
              JOINT ThumbRight
              {
                OFFSET 1.249173 -2.425012 -3.559800
                CHANNELS 3 Zrotation Xrotation Yrotation
                End Site
                {
                  OFFSET 0 0 0
                }
              }
            }
          }
        }
      }
    }
  }
  JOINT HipLeft
  {
    OFFSET -3.544908 0.338341 2.414721
    CHANNELS 3 Zrotation Xrotation Yrotation
    JOINT KneeLeft
    {
      OFFSET -0.368474 -24.223748 6.777119
      CHANNELS 3 Zrotation Xrotation Yrotation
      JOINT AnkleLeft
      {
        OFFSET 19.745920 -46.878006 7.557039
        CHANNELS 3 Zrotation Xrotation Yrotation
        JOINT FootLeft
        {
          OFFSET -5.390558 -6.700975 0.223150
          CHANNELS 3 Zrotation Xrotation Yrotation
          End Site
          {
            OFFSET 0 0 0
          }
        }
      }
    }
  }
  JOINT HipRight
  {
    OFFSET 2.545375 0.967684 -8.600266
    CHANNELS 3 Zrotation Xrotation Yrotation
    JOINT KneeRight
    {
      OFFSET 8.240926 -31.177138 2.966273
      CHANNELS 3 Zrotation Xrotation Yrotation
      JOINT AnkleRight
      {
        OFFSET 10.476058 -35.661955 6.971802
        CHANNELS 3 Zrotation Xrotation Yrotation
        JOINT FootRight
        {
          OFFSET -4.134852 -6.005102 2.261722
          CHANNELS 3 Zrotation Xrotation Yrotation
          End Site
          {
            OFFSET 0 0 0
          }
        }
      }
    }
  }
}
MOTION
Frames: 5
Frame Time: 0.033333
54.838477 77.919397 338.509782 -0.000000 0.000000 61.061409 -0.000000 0.000000 -61.061409 -0.000000 0.000000 0.000000 -0.000000 0.000000 0.000000 0.000000 0.000000 0.000000 -0.000000 0.000000 0.000000 -0.000000 0.000000 0.000000 -0.000000 0.000000 0.000000 -0.000000 0.000000 0.000000 0.000000 0.000000 0.000000 0.000000 0.000000 0.000000 -0.000000 0.000000 0.000000 -0.000000 0.000000 0.000000 -0.000000 0.000000 0.000000 -0.000000 0.000000 0.000000 0.000000 0.000000 0.000000 0.000000 0.000000 0.000000 -0.000000 0.000000 -61.061409 -0.000000 0.000000 0.000000 -0.000000 0.000000 0.000000 0.000000 0.000000 0.000000 -0.000000 0.000000 -61.061409 -0.000000 0.000000 0.000000 -0.000000 0.000000 0.000000 0.000000 0.000000 0.000000
54.844572 77.872589 338.499667 -0.002049 0.071929 60.388074 -0.061522 -0.037323 -60.388093 -0.000000 0.000000 0.000000 -0.000000 0.000000 0.000000 0.000000 0.000000 0.000000 -0.000000 0.000000 0.000000 -0.000000 0.000000 0.000000 0.391156 1.527749 -0.195189 1.112586 -2.386598 0.404088 0.000000 0.000000 0.000000 0.000000 0.000000 0.000000 -0.000000 0.000000 0.000000 -0.000000 0.000000 0.000000 -0.000000 0.000000 0.000000 0.737228 1.009605 -0.101705 0.000000 0.000000 0.000000 0.000000 0.000000 0.000000 -0.061522 -0.037323 -60.388093 -0.000000 0.000000 0.000000 2.072183 6.082262 -5.017240 0.000000 0.000000 0.000000 -0.061522 -0.037323 -60.388093 -0.000000 0.000000 0.000000 -1.885513 0.120472 -0.782611 0.000000 0.000000 0.000000
54.852770 77.830874 338.493933 0.001931 0.125807 59.863134 -0.109771 -0.061494 -59.863195 -0.000000 0.000000 0.000000 -0.000000 0.000000 0.000000 0.000000 0.000000 0.000000 -0.000000 0.000000 0.000000 -0.000000 0.000000 0.000000 0.728186 2.819192 -0.368369 1.662820 -4.327525 0.767600 0.000000 0.000000 0.000000 0.000000 0.000000 0.000000 -0.000000 0.000000 0.000000 -0.000000 0.000000 0.000000 -0.721935 0.674686 -0.132264 1.905850 1.280017 -0.071852 0.000000 0.000000 0.000000 0.000000 0.000000 0.000000 -0.109771 -0.061494 -59.863195 -0.000000 0.000000 0.000000 4.068993 10.873042 -9.300374 0.000000 0.000000 0.000000 -0.109771 -0.061494 -59.863195 -0.000000 0.000000 0.000000 -3.283588 0.292069 -1.403362 0.000000 0.000000 0.000000
54.863072 77.794253 338.492578 0.011920 0.161737 59.482454 -0.145385 -0.071862 -59.482562 -0.000000 0.000000 0.000000 -0.000000 0.000000 0.000000 0.000000 0.000000 0.000000 -0.000000 0.000000 0.000000 -0.000000 0.000000 0.000000 1.000588 3.841986 -0.510884 1.766931 -5.864064 1.044811 0.000000 0.000000 0.000000 0.000000 0.000000 0.000000 -0.000000 0.000000 0.000000 0.534777 0.838871 -0.179610 -1.653042 0.041482 -0.028565 2.448437 1.933420 -0.143757 0.000000 0.000000 0.000000 0.000000 0.000000 0.000000 -0.145385 -0.071862 -59.482562 -0.000000 0.000000 0.000000 5.725696 14.403884 -12.696105 0.000000 0.000000 0.000000 -0.145385 -0.071862 -59.482562 -0.000000 0.000000 0.000000 -4.195097 0.500788 -1.863114 0.000000 0.000000 0.000000
54.875476 77.762725 338.495603 0.027910 0.179797 59.242550 -0.168780 -0.067965 -59.242694 -0.000000 0.000000 0.000000 -0.000000 0.000000 0.000000 0.000000 0.000000 0.000000 -0.000000 0.000000 0.000000 -0.000000 0.000000 0.000000 1.198751 4.567876 -0.614768 1.456101 -7.014080 1.204331 0.000000 0.000000 0.000000 0.000000 0.000000 0.000000 -0.000000 0.000000 0.000000 0.588709 1.044748 -0.217342 -2.129305 -0.038986 -0.048859 2.709260 2.579248 -0.234906 0.000000 0.000000 0.000000 0.000000 0.000000 0.000000 -0.168780 -0.067965 -59.242694 -0.000000 0.000000 0.000000 6.868435 16.818639 -15.136539 0.000000 0.000000 0.000000 -0.168780 -0.067965 -59.242694 -0.808456 0.012294 -0.154679 -3.816865 0.714435 -2.011266 0.000000 0.000000 0.000000
